HIERARCHY
ROOT __0
{
	OFFSET 0.0 0.0 0.0
	CHANNELS 0
	JOINT Body
	{
		OFFSET 0.000000 0.000000 0.566972
		CHANNELS 6 Xposition Yposition Zposition Xrotation Yrotation Zrotation
		JOINT Arm_L
		{
			OFFSET 0.000000 0.000000 0.665510
			CHANNELS 3 Xrotation Yrotation Zrotation
			JOINT Hand_L
			{
				OFFSET -0.502921 0.000000 -0.004745
				CHANNELS 3 Xrotation Yrotation Zrotation
				End Site
				{
					OFFSET -0.277555 0.000000 -0.004745
				}
			}
		}
		JOINT Arm_R
		{
			OFFSET 0.000000 0.000000 0.665510
			CHANNELS 3 Xrotation Yrotation Zrotation
			JOINT Hand_R
			{
				OFFSET 0.502921 0.000000 -0.004745
				CHANNELS 3 Xrotation Yrotation Zrotation
				End Site
				{
					OFFSET 0.277555 0.000000 -0.004745
				}
			}
		}
		JOINT Head
		{
			OFFSET 0.000000 0.000000 0.665510
			CHANNELS 3 Xrotation Yrotation Zrotation
			End Site
			{
				OFFSET 0.000000 0.000000 0.462592
			}
		}
	}
	JOINT Leg_L
	{
		OFFSET 0.000000 0.000000 0.566972
		CHANNELS 6 Xposition Yposition Zposition Xrotation Yrotation Zrotation
		JOINT Foot_L
		{
			OFFSET -0.260949 0.000000 -0.310767
			CHANNELS 3 Xrotation Yrotation Zrotation
			End Site
			{
				OFFSET 0.000000 0.000000 -0.215876
			}
		}
	}
	JOINT Leg_R
	{
		OFFSET 0.000000 0.000000 0.566972
		CHANNELS 6 Xposition Yposition Zposition Xrotation Yrotation Zrotation
		JOINT Foot_R
		{
			OFFSET 0.260949 0.000000 -0.310767
			CHANNELS 3 Xrotation Yrotation Zrotation
			End Site
			{
				OFFSET 0.000000 0.000000 -0.215876
			}
		}
	}
}
MOTION
Frames: 30
Frame Time: 0.041667
0.000000 0.000000 0.566972 -0.000000 0.000000 -0.000000 -12.282709 -25.331570 -3.168958 -27.344886 -45.379145 -12.384898 -12.282713 25.331577 3.168959 -27.344893 45.379148 12.384902 -0.000000 0.000000 -0.000000 -0.000000 -0.000000 0.566972 0.000000 0.000000 -0.000000 0.000000 0.000000 -0.000000 0.000000 -0.000000 0.566972 0.000000 -0.000000 -0.000000 0.000000 -0.000000 -0.000000 
0.000000 0.000000 0.566972 -0.000000 0.000000 -0.000000 -12.311175 -25.494494 -3.184846 -27.344884 -45.379145 -12.384896 -12.311172 25.494487 3.184845 -27.344895 45.379145 12.384905 0.270574 0.000000 -0.000000 -0.000000 -0.000000 0.566972 0.000000 0.000000 -0.000000 0.000000 0.000000 -0.000000 0.000000 -0.000000 0.566972 0.000000 -0.000000 -0.000000 0.000000 -0.000000 -0.000000 
0.000000 0.000000 0.566972 -0.000000 0.000000 -0.000000 -12.391373 -25.950728 -3.229936 -27.344888 -45.379142 -12.384894 -12.391372 25.950728 3.229936 -27.344893 45.379145 12.384898 1.028711 0.000000 -0.000000 -0.000000 -0.000000 0.566972 0.000000 0.000000 -0.000000 0.000000 0.000000 -0.000000 0.000000 -0.000000 0.566972 0.000000 -0.000000 -0.000000 0.000000 -0.000000 -0.000000 
0.000000 0.000000 0.566972 -0.000000 0.000000 -0.000000 -12.515986 -26.651572 -3.300952 -27.344886 -45.379145 -12.384898 -12.515981 26.651569 3.300950 -27.344893 45.379148 12.384901 2.194387 0.000000 -0.000000 -0.000000 -0.000000 0.566972 0.000000 0.000000 -0.000000 0.000000 0.000000 -0.000000 0.000000 -0.000000 0.566972 0.000000 -0.000000 -0.000000 0.000000 -0.000000 -0.000000 
0.000000 0.000000 0.566972 -0.000000 0.000000 -0.000000 -12.678031 -27.548275 -3.394994 -27.344884 -45.379138 -12.384899 -12.678030 27.548275 3.394993 -27.344891 45.379145 12.384901 3.687490 0.000000 -0.000000 -0.000000 -0.000000 0.566972 0.000000 0.000000 -0.000000 0.000000 0.000000 -0.000000 0.000000 -0.000000 0.566972 0.000000 -0.000000 -0.000000 0.000000 -0.000000 -0.000000 
0.000000 0.000000 0.566972 -0.000000 0.000000 -0.000000 -12.870516 -28.591933 -3.509111 -27.344886 -45.379142 -12.384895 -12.870516 28.591937 3.509112 -27.344888 45.379148 12.384901 5.427296 0.000000 -0.000000 -0.000000 -0.000000 0.566972 0.000000 0.000000 -0.000000 0.000000 0.000000 -0.000000 0.000000 -0.000000 0.566972 0.000000 -0.000000 -0.000000 0.000000 -0.000000 -0.000000 
0.000000 0.000000 0.566972 -0.000000 0.000000 -0.000000 -13.086120 -29.733473 -3.639938 -27.344884 -45.379142 -12.384897 -13.086122 29.733473 3.639938 -27.344895 45.379145 12.384901 7.332240 0.000000 -0.000000 -0.000000 -0.000000 0.566972 0.000000 0.000000 -0.000000 0.000000 0.000000 -0.000000 0.000000 -0.000000 0.566972 0.000000 -0.000000 -0.000000 0.000000 -0.000000 -0.000000 
0.000000 0.000000 0.566972 -0.000000 0.000000 -0.000000 -13.316953 -30.923736 -3.783373 -27.344884 -45.379145 -12.384894 -13.316955 30.923740 3.783373 -27.344895 45.379148 12.384901 9.319975 0.000000 -0.000000 -0.000000 -0.000000 0.566972 0.000000 0.000000 -0.000000 0.000000 0.000000 -0.000000 0.000000 -0.000000 0.566972 0.000000 -0.000000 -0.000000 0.000000 -0.000000 -0.000000 
0.000000 0.000000 0.566972 -0.000000 0.000000 -0.000000 -13.554255 -32.113463 -3.934303 -27.344886 -45.379145 -12.384899 -13.554254 32.113463 3.934303 -27.344891 45.379148 12.384901 11.307717 0.000000 -0.000000 -0.000000 -0.000000 0.566972 0.000000 0.000000 -0.000000 0.000000 0.000000 -0.000000 0.000000 -0.000000 0.566972 0.000000 -0.000000 -0.000000 0.000000 -0.000000 -0.000000 
0.000000 0.000000 0.566972 -0.000000 0.000000 -0.000000 -13.788264 -33.253555 -4.086432 -27.344888 -45.379145 -12.384894 -13.788266 33.253558 4.086432 -27.344895 45.379145 12.384901 13.212656 0.000000 -0.000000 -0.000000 -0.000000 0.566972 0.000000 0.000000 -0.000000 0.000000 0.000000 -0.000000 0.000000 -0.000000 0.566972 0.000000 -0.000000 -0.000000 0.000000 -0.000000 -0.000000 
0.000000 0.000000 0.566972 -0.000000 0.000000 -0.000000 -14.008072 -34.295042 -4.232174 -27.344884 -45.379138 -12.384899 -14.008075 34.295046 4.232175 -27.344895 45.379148 12.384902 14.952466 0.000000 -0.000000 -0.000000 -0.000000 0.566972 0.000000 0.000000 -0.000000 0.000000 0.000000 -0.000000 0.000000 -0.000000 0.566972 0.000000 -0.000000 -0.000000 0.000000 -0.000000 -0.000000 
0.000000 0.000000 0.566972 -0.000000 0.000000 -0.000000 -14.201684 -35.189227 -4.362734 -27.344888 -45.379145 -12.384896 -14.201684 35.189227 4.362734 -27.344896 45.379145 12.384897 16.445569 0.000000 -0.000000 -0.000000 -0.000000 0.566972 0.000000 0.000000 -0.000000 0.000000 0.000000 -0.000000 0.000000 -0.000000 0.566972 0.000000 -0.000000 -0.000000 0.000000 -0.000000 -0.000000 
0.000000 0.000000 0.566972 -0.000000 0.000000 -0.000000 -14.356229 -35.887696 -4.468365 -27.344884 -45.379142 -12.384898 -14.356231 35.887696 4.468366 -27.344893 45.379145 12.384901 17.611243 0.000000 -0.000000 -0.000000 -0.000000 0.566972 0.000000 0.000000 -0.000000 0.000000 0.000000 -0.000000 0.000000 -0.000000 0.566972 0.000000 -0.000000 -0.000000 0.000000 -0.000000 -0.000000 
0.000000 0.000000 0.566972 -0.000000 0.000000 -0.000000 -14.458418 -36.342183 -4.538881 -27.344888 -45.379142 -12.384899 -14.458419 36.342183 4.538880 -27.344893 45.379148 12.384905 18.369382 0.000000 -0.000000 -0.000000 -0.000000 0.566972 0.000000 0.000000 -0.000000 0.000000 0.000000 -0.000000 0.000000 -0.000000 0.566972 0.000000 -0.000000 -0.000000 0.000000 -0.000000 -0.000000 
0.000000 0.000000 0.566972 -0.000000 0.000000 -0.000000 -14.495222 -36.504438 -4.564403 -27.344879 -45.379138 -12.384901 -14.495224 36.504438 4.564403 -27.344888 45.379148 12.384905 18.639955 0.000000 -0.000000 -0.000000 -0.000000 0.566972 0.000000 0.000000 -0.000000 0.000000 0.000000 -0.000000 0.000000 -0.000000 0.566972 0.000000 -0.000000 -0.000000 0.000000 -0.000000 -0.000000 
0.000000 0.000000 0.566972 -0.000000 0.000000 -0.000000 -14.463047 -36.362629 -4.542086 -27.344881 -45.379138 -12.384899 -14.463047 36.362629 4.542087 -27.344891 45.379148 12.384901 18.403473 0.000000 -0.000000 -0.000000 -0.000000 0.566972 0.000000 0.000000 -0.000000 0.000000 0.000000 -0.000000 0.000000 -0.000000 0.566972 0.000000 -0.000000 -0.000000 0.000000 -0.000000 -0.000000 
0.000000 0.000000 0.566972 -0.000000 0.000000 -0.000000 -14.373172 -35.963439 -4.480019 -27.344888 -45.379142 -12.384897 -14.373168 35.963436 4.480018 -27.344893 45.379145 12.384901 17.737619 0.000000 -0.000000 -0.000000 -0.000000 0.566972 0.000000 0.000000 -0.000000 0.000000 0.000000 -0.000000 0.000000 -0.000000 0.566972 0.000000 -0.000000 -0.000000 0.000000 -0.000000 -0.000000 
0.000000 0.000000 0.566972 -0.000000 0.000000 -0.000000 -14.236141 -35.346120 -4.386178 -27.344886 -45.379145 -12.384902 -14.236141 35.346116 4.386177 -27.344893 45.379152 12.384905 16.707469 0.000000 -0.000000 -0.000000 -0.000000 0.566972 0.000000 0.000000 -0.000000 0.000000 0.000000 -0.000000 0.000000 -0.000000 0.566972 0.000000 -0.000000 -0.000000 0.000000 -0.000000 -0.000000 
0.000000 0.000000 0.566972 -0.000000 0.000000 -0.000000 -14.062782 -34.549897 -4.268863 -27.344886 -45.379142 -12.384898 -14.062783 34.549901 4.268864 -27.344888 45.379148 12.384902 15.378096 0.000000 -0.000000 -0.000000 -0.000000 0.566972 0.000000 0.000000 -0.000000 0.000000 0.000000 -0.000000 0.000000 -0.000000 0.566972 0.000000 -0.000000 -0.000000 0.000000 -0.000000 -0.000000 
0.000000 0.000000 0.566972 -0.000000 0.000000 -0.000000 -13.863686 -33.614086 -4.136134 -27.344884 -45.379142 -12.384896 -13.863683 33.614083 4.136133 -27.344895 45.379148 12.384899 13.814988 0.000000 -0.000000 -0.000000 -0.000000 0.566972 0.000000 0.000000 -0.000000 0.000000 0.000000 -0.000000 0.000000 -0.000000 0.566972 0.000000 -0.000000 -0.000000 0.000000 -0.000000 -0.000000 
0.000000 0.000000 0.566972 -0.000000 0.000000 -0.000000 -13.648839 -32.578213 -3.995407 -27.344891 -45.379145 -12.384898 -13.648840 32.578209 3.995408 -27.344893 45.379145 12.384901 12.084254 0.000000 -0.000000 -0.000000 -0.000000 0.566972 0.000000 0.000000 -0.000000 0.000000 0.000000 -0.000000 0.000000 -0.000000 0.566972 0.000000 -0.000000 -0.000000 0.000000 -0.000000 -0.000000 
0.000000 0.000000 0.566972 -0.000000 0.000000 -0.000000 -13.427458 -31.482002 -3.853229 -27.344888 -45.379142 -12.384897 -13.427458 31.482002 3.853228 -27.344895 45.379145 12.384901 10.252631 0.000000 -0.000000 -0.000000 -0.000000 0.566972 0.000000 0.000000 -0.000000 0.000000 0.000000 -0.000000 0.000000 -0.000000 0.566972 0.000000 -0.000000 -0.000000 0.000000 -0.000000 -0.000000 
0.000000 0.000000 0.566972 -0.000000 0.000000 -0.000000 -13.207873 -30.365351 -3.715167 -27.344891 -45.379138 -12.384898 -13.207872 30.365351 3.715167 -27.344888 45.379145 12.384899 8.387324 0.000000 -0.000000 -0.000000 -0.000000 0.566972 0.000000 0.000000 -0.000000 0.000000 0.000000 -0.000000 0.000000 -0.000000 0.566972 0.000000 -0.000000 -0.000000 0.000000 -0.000000 -0.000000 
0.000000 0.000000 0.566972 -0.000000 0.000000 -0.000000 -12.997594 -29.268259 -3.585845 -27.344886 -45.379145 -12.384899 -12.997595 29.268259 3.585845 -27.344893 45.379145 12.384900 6.555702 0.000000 -0.000000 -0.000000 -0.000000 0.566972 0.000000 0.000000 -0.000000 0.000000 0.000000 -0.000000 0.000000 -0.000000 0.566972 0.000000 -0.000000 -0.000000 0.000000 -0.000000 -0.000000 
0.000000 0.000000 0.566972 -0.000000 0.000000 -0.000000 -12.803411 -28.230741 -3.469037 -27.344888 -45.379145 -12.384897 -12.803411 28.230741 3.469037 -27.344893 45.379145 12.384900 4.824967 0.000000 -0.000000 -0.000000 -0.000000 0.566972 0.000000 0.000000 -0.000000 0.000000 0.000000 -0.000000 0.000000 -0.000000 0.566972 0.000000 -0.000000 -0.000000 0.000000 -0.000000 -0.000000 
0.000000 0.000000 0.566972 -0.000000 0.000000 -0.000000 -12.631550 -27.292768 -3.367826 -27.344888 -45.379142 -12.384896 -12.631548 27.292763 3.367825 -27.344891 45.379148 12.384901 3.261862 0.000000 -0.000000 -0.000000 -0.000000 0.566972 0.000000 0.000000 -0.000000 0.000000 0.000000 -0.000000 0.000000 -0.000000 0.566972 0.000000 -0.000000 -0.000000 0.000000 -0.000000 -0.000000 
0.000000 0.000000 0.566972 -0.000000 0.000000 -0.000000 -12.487846 -26.494177 -3.284816 -27.344886 -45.379138 -12.384899 -12.487842 26.494172 3.284815 -27.344895 45.379148 12.384904 1.932487 0.000000 -0.000000 -0.000000 -0.000000 0.566972 0.000000 0.000000 -0.000000 0.000000 0.000000 -0.000000 0.000000 -0.000000 0.566972 0.000000 -0.000000 -0.000000 0.000000 -0.000000 -0.000000 
0.000000 0.000000 0.566972 -0.000000 0.000000 -0.000000 -12.377956 -25.874693 -3.222360 -27.344886 -45.379145 -12.384898 -12.377952 25.874691 3.222359 -27.344893 45.379145 12.384903 0.902333 0.000000 -0.000000 -0.000000 -0.000000 0.566972 0.000000 0.000000 -0.000000 0.000000 0.000000 -0.000000 0.000000 -0.000000 0.566972 0.000000 -0.000000 -0.000000 0.000000 -0.000000 -0.000000 
0.000000 0.000000 0.566972 -0.000000 0.000000 -0.000000 -12.307583 -25.473961 -3.182837 -27.344888 -45.379142 -12.384897 -12.307583 25.473961 3.182837 -27.344893 45.379145 12.384902 0.236480 0.000000 -0.000000 -0.000000 -0.000000 0.566972 0.000000 0.000000 -0.000000 0.000000 0.000000 -0.000000 0.000000 -0.000000 0.566972 0.000000 -0.000000 -0.000000 0.000000 -0.000000 -0.000000 
0.000000 0.000000 0.566972 -0.000000 0.000000 -0.000000 -12.282709 -25.331570 -3.168958 -27.344886 -45.379145 -12.384898 -12.282713 25.331577 3.168959 -27.344893 45.379148 12.384902 -0.000000 0.000000 -0.000000 -0.000000 -0.000000 0.566972 0.000000 0.000000 -0.000000 0.000000 0.000000 -0.000000 0.000000 -0.000000 0.566972 0.000000 -0.000000 -0.000000 0.000000 -0.000000 -0.000000 
